<svg width="108" height="87" viewBox="0 0 108 87" fill="none" xmlns="http://www.w3.org/2000/svg">
<g filter="url(#filter0_d_0_1)">
<rect x="2" y="1" width="100" height="78.4314" rx="5" fill="black"/>
</g>
<path d="M17.904 63V21.336H28.144V37.144H38.256V21.336H48.496V63H38.256V46.04H28.144V63H17.904ZM71.383 63.768C68.6097 63.768 65.815 63.2773 62.999 62.296C60.2257 61.272 57.687 59.7573 55.383 57.752L61.207 50.776C62.8283 52.0133 64.5563 53.016 66.391 53.784C68.2683 54.552 70.167 54.936 72.087 54.936C73.9217 54.936 75.2443 54.6587 76.055 54.104C76.9083 53.5067 77.335 52.7813 77.335 51.928C77.335 51.032 77.079 50.328 76.567 49.816C76.0977 49.2613 75.3937 48.792 74.455 48.408C73.5163 47.9813 72.407 47.512 71.127 47L65.815 44.76C64.2363 44.1627 62.7643 43.352 61.399 42.328C60.0763 41.304 59.0097 40.0453 58.199 38.552C57.3883 37.016 56.983 35.2453 56.983 33.24C56.983 30.8933 57.623 28.7813 58.903 26.904C60.2257 24.984 62.0603 23.448 64.407 22.296C66.7537 21.144 69.4843 20.568 72.599 20.568C75.0737 20.568 77.527 21.0373 79.959 21.976C82.4337 22.872 84.6523 24.2373 86.615 26.072L81.495 32.536C80.0017 31.512 78.551 30.744 77.143 30.232C75.735 29.6773 74.0283 29.4 72.023 29.4C70.6577 29.4 69.527 29.6773 68.631 30.232C67.7777 30.744 67.351 31.5547 67.351 32.664C67.351 33.3893 67.607 34.008 68.119 34.52C68.6737 34.9893 69.4417 35.4373 70.423 35.864C71.447 36.248 72.6417 36.696 74.007 37.208L78.935 39.256C80.8123 39.9387 82.391 40.8133 83.671 41.88C84.9937 42.904 85.9963 44.1413 86.679 45.592C87.4043 47 87.767 48.6853 87.767 50.648C87.767 52.9947 87.127 55.1707 85.847 57.176C84.6097 59.1387 82.775 60.7387 80.343 61.976C77.911 63.1707 74.9243 63.768 71.383 63.768Z" fill="white"/>
<defs>
<filter id="filter0_d_0_1" x="0" y="0" width="108" height="86.4314" filterUnits="userSpaceOnUse" color-interpolation-filters="sRGB">
<feFlood flood-opacity="0" result="BackgroundImageFix"/>
<feColorMatrix in="SourceAlpha" type="matrix" values="0 0 0 0 0 0 0 0 0 0 0 0 0 0 0 0 0 0 127 0" result="hardAlpha"/>
<feOffset dx="2" dy="3"/>
<feGaussianBlur stdDeviation="2"/>
<feComposite in2="hardAlpha" operator="out"/>
<feColorMatrix type="matrix" values="0 0 0 0 0 0 0 0 0 0 0 0 0 0 0 0 0 0 0.25 0"/>
<feBlend mode="normal" in2="BackgroundImageFix" result="effect1_dropShadow_0_1"/>
<feBlend mode="normal" in="SourceGraphic" in2="effect1_dropShadow_0_1" result="shape"/>
</filter>
</defs>
</svg>
